<svg version="1.0" xmlns="http://www.w3.org/2000/svg" width="300" height="300" viewBox="0 0 300.000000 300.000000" preserveAspectRatio="xMidYMid " class="svg" style="width: 16px; height: 16px;">
<g transform="translate(0.000000,300.000000) scale(0.100000,-0.100000)" fill="#050505" stroke="none">
<path class="node" id="node1" d="M1245 2884 c-55 -9 -169 -46 -215 -69 -57 -30 -130 -91 -180 -151
-116 -140 -158 -344 -110 -527 36 -136 84 -224 207 -379 29 -37 53 -73 53 -80
0 -7 -33 -32 -73 -54 -98 -56 -264 -181 -334 -252 -60 -60 -122 -157 -147
-227 -46 -128 -51 -159 -51 -305 1 -131 3 -153 29 -229 15 -47 37 -103 48
-125 53 -106 157 -223 247 -280 186 -118 540 -148 796 -69 152 48 249 108 386
240 l96 93 127 -155 c70 -85 133 -155 139 -156 49 -3 399 0 403 3 2 3 -98 128
-222 279 -124 151 -228 280 -231 287 -5 11 5 37 62 167 49 112 114 341 130
460 4 28 9 58 12 68 4 16 -8 17 -151 17 -153 0 -156 0 -160 -22 -3 -13 -12
-59 -21 -103 -19 -94 -83 -295 -94 -295 -4 0 -37 35 -72 78 -36 42 -147 175
-248 295 -100 120 -181 220 -179 222 1 1 50 38 108 81 242 179 344 331 371
557 36 288 -103 515 -371 607 -51 18 -92 23 -195 25 -71 2 -143 1 -160 -1z
m239 -284 c69 -26 130 -85 163 -157 23 -49 25 -65 21 -146 -7 -140 -49 -217
-189 -342 -99 -89 -159 -127 -178 -112 -40 32 -184 229 -218 296 -36 73 -38
80 -38 176 0 91 2 104 27 147 44 73 109 124 181 142 90 21 167 19 231 -4z
m-203 -1252 c46 -57 92 -112 101 -123 162 -192 428 -524 428 -536 0 -41 -192
-208 -290 -252 -131 -58 -318 -73 -442 -36 -246 73 -375 250 -354 487 12 136
69 247 178 347 56 52 275 214 289 215 4 0 44 -46 90 -102z"></path>
</g>
<g transform="translate(0.000000,300.000000) scale(0.100000,-0.100000)" fill="#A2A2A2" stroke="none">



</g>
</svg>