<?xml version="1.0" encoding="iso-8859-1"?>
<!-- Generator: Adobe Illustrator 18.1.1, SVG Export Plug-In . SVG Version: 6.00 Build 0)  -->
<svg version="1.1" id="Capa_1" xmlns="http://www.w3.org/2000/svg" xmlns:xlink="http://www.w3.org/1999/xlink" x="0px" y="0px"
	 viewBox="0 0 20.979 20.979" style="enable-background:new 0 0 20.979 20.979;" xml:space="preserve">
<g>
	<path d="M20.499,13.485c-0.275-0.816-1.023-2.116-1.507-3.398c-0.485-1.284-1.658-1.004-2.585-1.24
		c0.352-1.137-0.552-2.381-0.552-2.381s-2.619-3.818-3.55-5.621c-0.931-1.803-1.212-0.295-1.312,0.594
		c-0.128,1.167,0.656,7.369,1.115,8.803c0.294,0.913,0.384,1.325,0.354,1.428c-0.465-0.589-1.424-1.94-1.748-3.368
		c-0.041-0.176-0.216-0.288-0.395-0.247c-0.175,0.039-0.288,0.215-0.248,0.394c0.28,1.232,0.964,2.369,1.488,3.111
		c-0.742-0.524-1.879-1.208-3.111-1.488c-0.178-0.039-0.354,0.073-0.394,0.249c-0.041,0.178,0.071,0.354,0.248,0.395
		c1.426,0.322,2.777,1.283,3.367,1.747c-0.104,0.029-0.516-0.061-1.428-0.353c-1.433-0.461-7.635-1.244-8.803-1.117
		c-0.887,0.1-2.395,0.382-0.593,1.313c1.803,0.93,5.621,3.55,5.621,3.55s1.244,0.902,2.382,0.551c0.236,0.926-0.044,2.1,1.239,2.585
		c1.283,0.483,2.582,1.232,3.399,1.508c0.901,0.308,2.703,1.28,2.079-0.936c-0.457-1.624-0.747-3.541-0.175-4.175
		c0.633-0.572,2.55-0.281,4.175,0.175C21.78,16.189,20.808,14.387,20.499,13.485z"/>
</g>
<g>
</g>
<g>
</g>
<g>
</g>
<g>
</g>
<g>
</g>
<g>
</g>
<g>
</g>
<g>
</g>
<g>
</g>
<g>
</g>
<g>
</g>
<g>
</g>
<g>
</g>
<g>
</g>
<g>
</g>
</svg>
