<?xml version="1.0" standalone="no"?>
<!DOCTYPE svg PUBLIC "-//W3C//DTD SVG 20010904//EN"
 "http://www.w3.org/TR/2001/REC-SVG-20010904/DTD/svg10.dtd">
<svg version="1.0" xmlns="http://www.w3.org/2000/svg"
 width="1280.000000pt" height="1149.000000pt" viewBox="0 0 1280.000000 1149.000000"
 preserveAspectRatio="xMidYMid meet">
<metadata>
Created by potrace 1.15, written by Peter Selinger 2001-2017
</metadata>
<g transform="translate(0.000000,1149.000000) scale(0.100000,-0.100000)"
fill="#000000" stroke="none">
<path d="M2140 11243 c-480 -49 -901 -248 -1242 -587 -174 -172 -301 -351
-413 -581 -170 -347 -233 -678 -207 -1080 55 -843 415 -1549 1252 -2455 199
-215 967 -985 1583 -1587 l567 -555 -2 -821 -3 -822 -882 -3 -883 -2 0 -365 0
-365 885 0 885 0 0 -885 0 -885 365 0 365 0 2 883 3 882 883 3 882 2 0 365 0
365 -882 2 -883 3 -3 821 -2 820 487 485 c269 266 706 700 973 964 267 264
486 482 487 485 1 3 -61 73 -138 155 -77 83 -190 209 -252 282 l-112 132 -300
-302 c-165 -166 -572 -576 -904 -910 l-605 -608 -604 603 c-759 758 -1408
1420 -1569 1602 -508 571 -751 1014 -839 1531 -25 143 -30 440 -10 555 49 280
181 526 400 746 177 177 331 274 546 344 131 43 228 54 419 47 385 -14 679
-130 1021 -403 47 -38 209 -191 360 -340 l275 -273 270 268 c352 349 507 472
740 589 208 103 396 150 646 159 190 7 282 -4 421 -47 203 -64 363 -165 539
-340 287 -287 419 -590 419 -968 0 -542 -191 -1033 -612 -1574 l-21 -27 25
-33 c40 -53 264 -302 374 -417 68 -71 104 -102 113 -97 17 11 177 226 264 356
301 447 484 884 556 1327 45 277 51 586 16 803 -109 669 -542 1257 -1142 1554
-310 153 -612 216 -968 203 -638 -24 -1092 -214 -1531 -639 -55 -54 -105 -98
-110 -98 -5 0 -39 30 -74 66 -185 188 -398 344 -615 449 -263 128 -483 187
-810 215 -113 9 -327 11 -405 3z"/>
<path d="M6826 11240 c-89 -10 -221 -34 -281 -51 l-39 -11 54 -23 c297 -121
584 -334 815 -605 l73 -85 104 -33 c190 -59 393 -176 590 -338 51 -42 212
-195 358 -340 l265 -264 270 268 c149 147 315 304 370 348 293 234 554 351
878 394 112 15 332 12 420 -4 405 -78 775 -373 968 -771 98 -205 130 -347 130
-580 -1 -528 -174 -988 -570 -1510 -231 -305 -264 -341 -1794 -1884 l-669
-674 -540 539 c-722 721 -1468 1481 -1624 1656 -636 713 -897 1295 -871 1942
11 271 101 518 273 747 73 96 228 252 297 299 20 14 37 28 37 32 0 10 -81 51
-174 88 -116 46 -254 70 -398 70 -107 0 -300 -20 -350 -36 -25 -8 -143 -195
-213 -339 -151 -310 -210 -572 -208 -925 1 -459 95 -857 303 -1287 203 -419
463 -785 909 -1278 173 -190 1422 -1441 1889 -1890 l301 -290 -2 -825 -2 -825
-882 -3 -883 -2 0 -365 0 -365 885 0 885 0 0 -885 0 -885 365 0 365 0 2 883 3
882 883 3 882 2 0 365 0 365 -882 2 -883 3 -3 821 -2 821 342 333 c487 473
1435 1418 1667 1660 679 711 1046 1250 1243 1829 130 381 185 822 147 1169
-57 523 -322 1025 -722 1368 -494 423 -1081 573 -1777 454 -446 -76 -803 -263
-1156 -602 -56 -54 -105 -98 -110 -98 -5 0 -48 39 -94 86 -354 358 -765 562
-1266 629 -142 19 -467 27 -578 15z"/>
</g>
</svg>
