<svg width="247" height="247" viewBox="0 0 247 247" fill="none" xmlns="http://www.w3.org/2000/svg">
<path d="M123.5 247C143.919 247 160.056 245.458 171.912 242.375C183.768 239.291 189.696 234.665 189.696 229.115L188.708 162.816L219.007 76.7828C220.324 77.0911 222.3 77.3995 224.935 77.3995C237.12 77.3995 247 68.7653 247 55.814C247 44.4045 237.12 35.4619 224.605 35.4619C211.761 35.4619 202.211 44.4045 202.211 56.4307C202.211 63.2147 206.163 70.6155 212.091 74.0075L168.948 142.156L178.499 52.1136H179.157C190.684 52.1136 201.223 42.5543 201.223 31.1448C201.223 19.7353 191.672 9.86767 179.157 9.86767C166.972 9.86767 156.433 18.8102 156.433 30.8365C156.433 39.779 161.703 47.4881 170.924 50.5718L139.967 138.456L127.452 41.6292C137.661 40.0874 145.895 31.7616 145.895 20.9688C145.895 8.94258 135.685 0 123.5 0C110.985 0 101.105 9.25094 101.105 20.9688C101.105 31.7616 109.339 40.0874 119.548 41.6292L107.033 138.456L76.076 50.5718C85.2973 47.4881 90.5667 39.779 90.5667 30.8365C90.5667 18.8102 80.028 9.86767 67.8427 9.86767C55.328 9.86767 45.7773 19.7353 45.7773 31.1448C45.7773 42.8627 56.316 52.1136 67.8427 52.1136H68.5013L78.052 142.156L34.9093 74.0075C40.8373 70.6155 44.7893 63.2147 44.7893 56.4307C44.7893 44.4045 35.2387 35.4619 22.3947 35.4619C10.2093 35.4619 0 44.4045 0 55.814C0 68.4569 9.55067 77.3995 22.0653 77.3995C24.7 77.3995 26.676 77.0911 27.9933 76.7828L58.292 162.816L57.304 229.115C57.304 234.665 63.232 238.983 75.088 242.066C86.944 245.15 103.081 247 123.5 247ZM117.572 26.5194C112.961 26.5194 109.339 23.1273 109.339 18.8102C109.339 14.4931 112.961 11.1011 117.572 11.1011C122.183 11.1011 125.805 14.4931 125.805 18.8102C125.805 23.1273 122.183 26.5194 117.572 26.5194ZM62.5733 36.387C57.9627 36.387 54.34 32.995 54.34 28.6779C54.34 24.3608 57.9627 20.9688 62.5733 20.9688C67.184 20.9688 70.8067 24.3608 70.8067 28.6779C70.8067 32.995 67.184 36.387 62.5733 36.387ZM172.9 36.387C168.289 36.387 164.667 32.995 164.667 28.6779C164.667 24.3608 168.289 20.9688 172.9 20.9688C177.511 20.9688 181.133 24.3608 181.133 28.6779C181.133 32.995 177.511 36.387 172.9 36.387ZM16.4667 61.3645C11.856 61.3645 8.23333 57.9725 8.23333 53.6554C8.23333 49.3383 11.856 45.9463 16.4667 45.9463C21.0773 45.9463 24.7 49.3383 24.7 53.6554C24.7 57.9725 21.0773 61.3645 16.4667 61.3645ZM218.677 61.3645C214.067 61.3645 210.444 57.9725 210.444 53.6554C210.444 49.3383 214.067 45.9463 218.677 45.9463C223.288 45.9463 226.911 49.3383 226.911 53.6554C226.911 57.9725 223.288 61.3645 218.677 61.3645ZM68.8307 182.86V177.31C76.4053 174.534 104.728 171.142 123.5 171.142C141.284 171.142 170.595 174.226 178.499 177.31V182.86C164.996 178.543 142.601 176.693 123.5 176.693C100.776 176.693 82.3333 178.851 68.8307 182.86ZM68.5013 201.362V195.811C76.4053 192.728 105.387 189.644 123.5 189.644C141.943 189.644 171.253 193.036 178.828 195.811V201.362C164.667 197.353 141.943 195.195 123.5 195.195C100.447 195.195 82.004 197.353 68.5013 201.362ZM68.172 219.247V214.313C76.076 211.23 105.057 208.146 123.5 208.146C142.601 208.146 171.253 211.23 179.157 214.313V219.247C167.631 215.547 144.577 213.697 123.5 213.697C102.093 213.697 80.028 215.547 68.172 219.247Z" fill="black"/>
</svg>
