<svg width="276" height="274" viewBox="0 0 276 274" fill="none" xmlns="http://www.w3.org/2000/svg">
<path d="M240.782 274H35.213C32.2966 274 29.7851 271.19 29.2055 267.275L0.124534 72.0755C-0.363061 68.8077 0.605997 65.456 2.59625 63.5323C4.58343 61.6044 7.21461 61.4784 9.29992 63.2005L87.7599 127.972L132.505 4.66229C133.533 1.83135 135.636 0.0252692 137.945 6.80205e-05C140.12 -0.0125326 142.377 1.72635 143.441 4.53628L189.67 126.762L266.698 63.2047C268.787 61.4826 271.412 61.6128 273.402 63.5365C275.392 65.4602 276.361 68.8119 275.877 72.0797L246.796 267.28C246.207 271.19 243.695 274 240.782 274Z" fill="black"/>
</svg>
