<svg width="339" height="324" viewBox="0 0 339 324" fill="none" xmlns="http://www.w3.org/2000/svg">
<path d="M53.1654 323.967C51.1145 323.967 49.4054 323.339 48.0381 322.083C46.7087 320.826 46.215 319.207 46.6328 317.223L60.9515 242.975H6.6772C4.62625 242.975 2.91712 242.347 1.54982 241.091C0.220503 239.835 -0.273245 238.215 0.144542 236.231L7.89258 195.736C8.31037 193.752 9.37383 192.132 11.1589 190.876C12.944 189.62 14.843 188.992 16.894 188.992H71.1682L81.7268 135.008H27.4526C25.1738 135.008 23.4266 134.38 22.1733 133.124C20.9199 131.868 20.5021 130.248 20.9199 128.264L28.668 87.7686C28.8579 86.5124 29.4276 85.3884 30.3771 84.3967C31.3266 83.405 32.3901 82.6116 33.6434 81.9504C34.8968 81.3223 36.2261 80.9917 37.6694 80.9917H91.9436L106.224 6.74382C106.642 4.76035 107.706 3.14051 109.491 1.88432C111.238 0.628118 113.175 1.43471e-05 115.226 1.43471e-05H161.752C163.803 1.43471e-05 165.512 0.628118 166.879 1.88432C168.209 3.14051 168.702 4.76035 168.285 6.74382L154.004 80.9917H216.026L230.307 6.74382C230.725 4.76035 231.788 3.14051 233.573 1.88432C235.32 0.628118 237.257 1.43471e-05 239.308 1.43471e-05H285.835C287.885 1.43471e-05 289.595 0.628118 290.962 1.88432C292.291 3.14051 292.785 4.76035 292.367 6.74382L278.049 80.9917H332.323C334.374 80.9917 336.083 81.6199 337.45 82.876C338.779 84.1322 339.273 85.7521 338.855 87.7356L331.107 128.231C330.917 129.488 330.348 130.612 329.398 131.603C328.487 132.595 327.347 133.388 325.98 134.05C324.651 134.678 323.359 135.008 322.106 135.008H267.832L257.273 188.992H311.547C312.991 188.992 314.282 189.322 315.421 189.95C316.561 190.579 317.32 191.405 317.738 192.364C318.156 193.355 318.27 194.479 318.042 195.736L310.294 236.231C309.876 238.215 308.813 239.835 307.028 241.091C305.281 242.347 303.344 242.975 301.293 242.975H247.056L232.776 317.223C232.586 318.479 232.016 319.603 231.067 320.595C230.117 321.587 229.054 322.38 227.8 323.041C226.547 323.669 225.218 324 223.774 324H177.248C175.197 324 173.488 323.372 172.121 322.116C170.791 320.86 170.298 319.24 170.715 317.256L184.996 242.975H122.974L108.693 317.223C108.275 319.207 107.212 320.826 105.427 322.083C103.68 323.339 101.743 323.967 99.6917 323.967H53.1654V323.967ZM133.191 188.992H195.213L205.771 135.008H143.749L133.191 188.992Z" fill="black"/>
</svg>
