<?xml version="1.0" encoding="utf-8"?>
<!-- Svg Vector Icons : http://www.onlinewebfonts.com/icon -->
<!DOCTYPE svg PUBLIC "-//W3C//DTD SVG 1.1//EN" "http://www.w3.org/Graphics/SVG/1.1/DTD/svg11.dtd">
<svg version="1.1" xmlns="http://www.w3.org/2000/svg" xmlns:xlink="http://www.w3.org/1999/xlink" x="0px" y="0px" viewBox="0 0 1000 1000" enable-background="new 0 0 1000 1000" xml:space="preserve">
<metadata> Svg Vector Icons : http://www.onlinewebfonts.com/icon </metadata>
<g><g><path d="M748.1,258.1c-64.6,0-125.3,25.1-170,69.8l-78.2,75L423,329c-45.6-45.7-106.4-70.9-171.1-70.9S126.5,283.4,80.9,329C35.2,374.7,10,435.4,10,500.1c0,64.5,25.1,125.3,70.9,170.9c45.6,45.7,106.3,70.9,171,70.9c64.6,0,125.4-25.1,170-69.9l78.1-74.9l77,73.9c45.6,45.7,106.4,70.9,171.1,70.9s125.3-25.1,170.9-70.9c45.7-45.6,70.9-106.4,70.9-171.1c0-64.7-25.1-125.3-70.9-171.1C873.4,283.2,812.7,258.1,748.1,258.1z M323.9,572c-38.5,38.5-105.5,38.5-144,0c-19.3-19.3-29.8-44.8-29.8-72c0-27.2,10.6-52.7,30-72.1c19.1-19.3,44.7-29.8,71.9-29.8c27.2,0,52.7,10.6,73.1,30.9l74,71.1L323.9,572z M820.1,572c-38.5,38.6-104.5,39.5-145-1l-74-71.1l75-72c38.5-38.5,105.6-38.5,144.1-0.1c19.3,19.4,29.8,44.9,29.8,72.1C850,527,839.3,552.7,820.1,572z"/></g><g></g><g></g><g></g><g></g><g></g><g></g><g></g><g></g><g></g><g></g><g></g><g></g><g></g><g></g><g></g></g>
</svg>