<?xml version="1.0" encoding="iso-8859-1"?>
<!-- Generator: Adobe Illustrator 18.1.1, SVG Export Plug-In . SVG Version: 6.00 Build 0)  -->
<svg version="1.1" id="Capa_1" xmlns="http://www.w3.org/2000/svg" xmlns:xlink="http://www.w3.org/1999/xlink" x="0px" y="0px"
	 viewBox="0 0 196.984 196.984" style="enable-background:new 0 0 196.984 196.984;" xml:space="preserve">
<g>
	<g>
		<path style="fill:#010002;" d="M98.497,0C44.184,0,0,44.181,0,98.486c0,54.313,44.184,98.497,98.497,98.497
			c54.305,0,98.486-44.188,98.486-98.497C196.984,44.181,152.803,0,98.497,0z M99.055,192.947v-0.172h-0.558
			c-24.837,0-45.054-20.675-45.054-46.092c0-25.424,20.213-46.092,45.054-46.092h0.558v-0.344
			c26.802-0.311,48.511-22.672,48.511-50.118c0-17.368-8.718-33.251-22.991-42.402c40.462,11.585,68.378,48.336,68.378,90.76
			C192.957,150.387,150.884,192.642,99.055,192.947z M98.497,4.037c24.837,0,45.04,20.675,45.04,46.092
			c0,25.413-20.203,46.092-45.04,46.092h-0.565v0.344C71.13,96.872,49.42,119.233,49.42,146.683
			c0,17.633,8.911,33.634,23.527,42.728C32.156,178.012,4.033,141.204,4.033,98.486C4.033,46.411,46.407,4.037,98.497,4.037z"/>
		<path style="fill:#010002;" d="M105.494,66.259c9.126,0,16.556-7.43,16.556-16.549c0-9.133-7.43-16.556-16.556-16.556
			c-9.133,0-16.552,7.423-16.552,16.556C88.942,58.829,96.361,66.259,105.494,66.259z M105.494,37.191
			c6.904,0,12.522,5.615,12.522,12.522c0,6.904-5.619,12.515-12.522,12.515c-6.904,0-12.522-5.612-12.522-12.515
			C92.971,42.807,98.59,37.191,105.494,37.191z"/>
		<path style="fill:#010002;" d="M105.494,132.729c-9.133,0-16.552,7.423-16.552,16.556c0,9.126,7.423,16.552,16.552,16.552
			c9.126,0,16.556-7.426,16.556-16.552C122.05,140.155,114.62,132.729,105.494,132.729z M105.494,161.803
			c-6.904,0-12.522-5.622-12.522-12.519c0-6.911,5.619-12.533,12.522-12.533c6.904,0,12.522,5.622,12.522,12.533
			C118.016,156.181,112.397,161.803,105.494,161.803z"/>
	</g>
</g>
<g>
</g>
<g>
</g>
<g>
</g>
<g>
</g>
<g>
</g>
<g>
</g>
<g>
</g>
<g>
</g>
<g>
</g>
<g>
</g>
<g>
</g>
<g>
</g>
<g>
</g>
<g>
</g>
<g>
</g>
</svg>
