mtllib Diamond.mtl
o Diamond
v 0.705224 0.693162 -0.015558
v 0.217655 0.689298 -0.623409
v 0.544510 0.694721 0.455322
v 0.521662 0.692868 -0.540646
v 0.677055 0.695727 0.228356
v 0.224424 0.701634 0.599253
v 0.373960 0.907858 -0.002234
v 0.232043 0.920125 -0.225453
v 0.693677 0.696652 -0.294311
v 0.221887 0.913288 0.186264
v 0.000000 0.000000 0.000000
v 0.000000 0.916380 -0.000819
v -0.705224 0.693162 -0.015558
v -0.217655 0.689298 -0.623409
v -0.544510 0.694721 0.455322
v -0.521662 0.692868 -0.540646
v -0.677055 0.695727 0.228356
v 0.000000 0.918238 -0.266676
v -0.224424 0.701634 0.599253
v 0.000000 0.912803 0.253968
v -0.373960 0.907858 -0.002234
v -0.232043 0.920125 -0.225453
v -0.693677 0.696652 -0.294311
v 0.000000 0.697244 0.602221
v 0.000000 0.690710 -0.625009
v -0.221887 0.913288 0.186264
v 0.186980 0.912119 -0.001526
v 0.223156 0.807461 0.392758
v 0.539592 0.800510 -0.008896
v 0.000000 0.917309 -0.133748
v 0.699451 0.694907 -0.154935
v 0.346839 0.348326 -0.147156
v 0.112212 0.807218 0.426610
v 0.108827 0.690004 -0.624209
v 0.338528 0.347863 0.114178
v 0.369658 0.691083 -0.582027
v 0.000000 0.345355 -0.312505
v 0.110943 0.913046 0.220116
v 0.000000 0.914592 0.126574
v 0.691140 0.694444 0.106399
v 0.116021 0.919182 -0.246065
v 0.112212 0.699439 0.600737
v 0.000000 0.804474 -0.445843
v 0.376852 0.806497 -0.383049
v 0.607670 0.694760 -0.417479
v 0.303001 0.913991 -0.113843
v 0.384467 0.698177 0.527287
v 0.000000 0.348622 0.301111
v 0.272255 0.347360 0.227661
v 0.352612 0.346581 -0.007779
v 0.000000 0.805024 0.428094
v 0.610783 0.695224 0.341839
v 0.383198 0.804005 0.320793
v 0.224849 0.804712 -0.424431
v 0.108827 0.803768 -0.445043
v 0.462860 0.808389 -0.259882
v 0.533819 0.802255 -0.148273
v 0.112212 0.350817 0.299626
v 0.260831 0.346434 -0.270323
v 0.108827 0.344649 -0.311704
v 0.525508 0.801792 0.113061
v 0.297923 0.910573 0.092015
v 0.449471 0.804508 0.207310
v 0.116021 0.918252 -0.113136
v 0.110943 0.914834 0.092722
v -0.186980 0.912119 -0.001526
v -0.223156 0.807461 0.392758
v -0.539592 0.800510 -0.008896
v -0.699451 0.694907 -0.154935
v -0.346839 0.348326 -0.147156
v -0.112212 0.807219 0.426610
v -0.108827 0.690004 -0.624209
v -0.338528 0.347863 0.114178
v -0.369658 0.691083 -0.582027
v -0.110943 0.913046 0.220116
v -0.691140 0.694445 0.106399
v -0.116021 0.919182 -0.246065
v -0.112212 0.699439 0.600737
v -0.376852 0.806497 -0.383049
v -0.607670 0.694760 -0.417479
v -0.303001 0.913991 -0.113843
v -0.384467 0.698177 0.527287
v -0.272255 0.347360 0.227661
v -0.352612 0.346581 -0.007779
v -0.610783 0.695224 0.341839
v -0.383198 0.804005 0.320793
v -0.224849 0.804712 -0.424431
v -0.108827 0.803768 -0.445043
v -0.462860 0.808389 -0.259882
v -0.533819 0.802255 -0.148273
v -0.112212 0.350817 0.299626
v -0.260831 0.346434 -0.270323
v -0.108827 0.344649 -0.311704
v -0.525508 0.801792 0.113061
v -0.297923 0.910573 0.092015
v -0.449471 0.804507 0.207310
v -0.116021 0.918252 -0.113136
v -0.110943 0.914834 0.092722
v 0.482461 0.769882 -0.353470
v 0.074808 0.770560 0.485147
v 0.072552 0.460003 -0.416139
v 0.405113 0.463173 -0.278319
v 0.323786 0.767430 -0.463169
v 0.074808 0.466293 0.400491
v 0.198616 0.912509 0.061070
v 0.460760 0.462963 0.070933
v 0.256311 0.465451 0.351525
v 0.202001 0.914788 -0.076169
v 0.585413 0.765582 0.070188
v 0.466300 0.463271 -0.103290
v 0.407188 0.463482 0.227893
v 0.246439 0.460722 -0.388018
v 0.330274 0.769881 0.413613
v 0.148770 0.842575 0.346495
v 0.149899 0.842554 -0.371846
v 0.072552 0.766082 -0.505031
v 0.590954 0.765891 -0.104034
v 0.433227 0.841545 -0.173999
v 0.481151 0.767912 0.289981
v 0.424301 0.838958 0.137462
v 0.077348 0.918248 -0.164316
v 0.073962 0.914157 0.146471
v -0.482461 0.769882 -0.353470
v -0.074808 0.770560 0.485147
v -0.072552 0.460003 -0.416139
v -0.405113 0.463173 -0.278319
v -0.323786 0.767430 -0.463169
v -0.074808 0.466293 0.400491
v -0.198616 0.912509 0.061070
v -0.460760 0.462963 0.070933
v -0.256311 0.465451 0.351525
v -0.202001 0.914788 -0.076169
v -0.585413 0.765582 0.070188
v -0.466300 0.463271 -0.103290
v -0.407188 0.463482 0.227893
v -0.246439 0.460722 -0.388018
v -0.330274 0.769881 0.413613
v -0.148770 0.842575 0.346495
v -0.149899 0.842554 -0.371846
v -0.072552 0.766082 -0.505031
v -0.590954 0.765891 -0.104034
v -0.433227 0.841545 -0.173999
v -0.481151 0.767912 0.289981
v -0.424301 0.838958 0.137462
v -0.077348 0.918248 -0.164316
v -0.073962 0.914157 0.146471
vt 0.445264 0.724209
vt 0.356818 0.624759
vt 0.406463 0.631778
vt 0.475509 0.685013
vt 0.268371 0.525309
vt 0.387062 0.585563
vt 0.505754 0.645817
vt 0.985116 0.189736
vt 0.906761 0.257970
vt 0.775098 0.172013
vt 0.748444 0.094918
vt 0.828406 0.326205
vt 0.670089 0.163152
vt 0.511773 0.000099
vt 0.985116 0.972799
vt 0.598762 0.986350
vt 0.512157 0.939509
vt 0.662032 0.909313
vt 0.212408 0.999901
vt 0.275677 0.922863
vt 0.338947 0.845826
vt 0.745435 0.809308
vt 0.645378 0.780942
vt 0.715190 0.848504
vt 0.392106 0.785018
vt 0.350861 0.698448
vt 0.303659 0.685568
vt 0.906761 0.649502
vt 0.932879 0.496247
vt 0.985116 0.581268
vt 0.435633 0.441652
vt 0.296688 0.303398
vt 0.360988 0.292532
vt 0.462612 0.356226
vt 0.157742 0.165144
vt 0.323666 0.217972
vt 0.489590 0.270800
vt 0.628490 0.517728
vt 0.806803 0.745264
vt 0.727117 0.690197
vt 0.598118 0.548896
vt 0.776431 0.776431
vt 0.567745 0.580063
vt 0.703885 0.452595
vt 0.766146 0.389400
vt 0.839136 0.583866
vt 0.844501 0.712697
vt 0.213056 0.345226
vt 0.287249 0.377368
vt 0.352002 0.483481
vt 0.501689 0.510858
vt 0.543956 0.513148
vt 0.532062 0.479690
vt 0.686205 0.732893
vt 0.536750 0.612940
vt 0.772497 0.647707
vt 0.666188 0.485162
vt 0.589776 0.847611
vt 0.658998 0.298502
vt 0.673960 0.349867
vt 0.596738 0.361697
vt 0.609923 0.199035
vt 0.500681 0.135450
vt 0.202472 0.634739
vt 0.134235 0.529196
vt 0.169523 0.689454
vt 0.000099 0.533082
vt 0.183818 0.792936
vt 0.106254 0.766491
vt 0.470694 0.543734
vt 0.503044 0.555844
vt 0.403253 0.537593
vt 0.559040 0.394264
vt 0.607322 0.413708
vt 0.517905 0.410060
vt 0.142071 0.407845
vt 0.078921 0.349113
vt 0.386368 0.145348
vt 0.334757 0.082621
vt 0.445264 0.724209
vt 0.475509 0.685013
vt 0.406463 0.631778
vt 0.356818 0.624759
vt 0.505754 0.645817
vt 0.387062 0.585563
vt 0.268371 0.525309
vt 0.775098 0.172013
vt 0.906761 0.257970
vt 0.670089 0.163152
vt 0.828406 0.326205
vt 0.662032 0.909313
vt 0.512157 0.939509
vt 0.338947 0.845826
vt 0.275677 0.922863
vt 0.645378 0.780942
vt 0.745435 0.809308
vt 0.715190 0.848504
vt 0.350861 0.698448
vt 0.392106 0.785018
vt 0.303659 0.685568
vt 0.932879 0.496247
vt 0.906761 0.649502
vt 0.435633 0.441652
vt 0.462612 0.356226
vt 0.360988 0.292532
vt 0.296688 0.303398
vt 0.489590 0.270800
vt 0.323666 0.217972
vt 0.628490 0.517728
vt 0.598118 0.548896
vt 0.727117 0.690197
vt 0.806803 0.745264
vt 0.567745 0.580063
vt 0.776431 0.776431
vt 0.703885 0.452595
vt 0.844501 0.712697
vt 0.839136 0.583866
vt 0.766146 0.389400
vt 0.352002 0.483481
vt 0.287249 0.377368
vt 0.213056 0.345226
vt 0.543956 0.513148
vt 0.501689 0.510858
vt 0.532062 0.479690
vt 0.686205 0.732893
vt 0.536750 0.612940
vt 0.772497 0.647707
vt 0.666188 0.485162
vt 0.589776 0.847611
vt 0.596738 0.361697
vt 0.673960 0.349867
vt 0.658998 0.298502
vt 0.500681 0.135450
vt 0.609923 0.199035
vt 0.134235 0.529196
vt 0.202472 0.634739
vt 0.169523 0.689454
vt 0.183818 0.792936
vt 0.503044 0.555844
vt 0.470694 0.543734
vt 0.403253 0.537593
vt 0.607322 0.413708
vt 0.559040 0.394264
vt 0.517905 0.410060
vt 0.142071 0.407845
vt 0.386368 0.145348
vn 0.3838 0.8795 -0.2815
vn -0.0097 0.8503 0.5263
vn 0.0011 -0.6710 -0.7415
vn 0.5675 -0.7278 -0.3851
vn 0.1264 0.8561 -0.5011
vn 0.0228 -0.6535 0.7566
vn 0.0227 0.9997 -0.0105
vn 0.6992 -0.7094 0.0882
vn 0.2910 -0.6735 0.6795
vn 0.0229 0.9989 0.0403
vn 0.5446 0.8369 0.0541
vn 0.7001 -0.7131 -0.0379
vn 0.6099 -0.7095 0.3531
vn 0.1974 -0.6911 -0.6953
vn 0.2184 0.8690 0.4440
vn 0.1357 0.8820 0.4512
vn 0.0822 0.8608 -0.5023
vn 0.0094 0.8442 -0.5360
vn 0.5435 0.8393 -0.0120
vn 0.4013 0.8925 -0.2061
vn 0.4009 0.8847 0.2380
vn 0.3907 0.8736 0.2901
vn -0.0094 0.9999 0.0070
vn 0.0021 0.9999 0.0140
vn -0.3838 0.8795 -0.2815
vn 0.0097 0.8503 0.5263
vn -0.0011 -0.6710 -0.7415
vn -0.5675 -0.7278 -0.3851
vn -0.1264 0.8561 -0.5011
vn -0.0228 -0.6535 0.7566
vn -0.0227 0.9997 -0.0105
vn -0.6992 -0.7094 0.0882
vn -0.2910 -0.6735 0.6795
vn -0.0229 0.9989 0.0403
vn -0.5446 0.8369 0.0541
vn -0.7001 -0.7131 -0.0379
vn -0.6099 -0.7095 0.3531
vn -0.1974 -0.6911 -0.6953
vn -0.2184 0.8690 0.4440
vn -0.1357 0.8820 0.4512
vn -0.0822 0.8608 -0.5023
vn -0.0094 0.8442 -0.5360
vn -0.5435 0.8393 -0.0120
vn -0.4013 0.8925 -0.2061
vn -0.4009 0.8847 0.2380
vn -0.3907 0.8736 0.2901
vn 0.0094 0.9999 0.0070
vn -0.0021 0.9999 0.0140
g Diamond_Diamond_DiamondMaterial
usemtl DiamondMaterial
s off
f 4/1/1 44/2/1 99/3/1 45/4/1
f 8/5/1 56/6/1 99/3/1 44/2/1
f 9/7/1 45/4/1 99/3/1 56/6/1
f 24/8/2 42/9/2 100/10/2 51/11/2
f 6/12/2 33/13/2 100/10/2 42/9/2
f 20/14/2 51/11/2 100/10/2 33/13/2
f 11/15/3 37/16/3 101/17/3 60/18/3
f 25/19/3 34/20/3 101/17/3 37/16/3
f 2/21/3 60/18/3 101/17/3 34/20/3
f 9/7/4 32/22/4 102/23/4 45/4/4
f 11/15/4 59/24/4 102/23/4 32/22/4
f 4/1/4 45/4/4 102/23/4 59/24/4
f 4/1/5 36/25/5 103/26/5 44/2/5
f 2/21/5 54/27/5 103/26/5 36/25/5
f 8/5/5 44/2/5 103/26/5 54/27/5
f 11/15/6 58/28/6 104/29/6 48/30/6
f 6/12/6 42/9/6 104/29/6 58/28/6
f 24/8/6 48/30/6 104/29/6 42/9/6
f 7/31/7 27/32/7 105/33/7 62/34/7
f 12/35/7 65/36/7 105/33/7 27/32/7
f 10/37/7 62/34/7 105/33/7 65/36/7
f 5/38/8 35/39/8 106/40/8 40/41/8
f 11/15/8 50/42/8 106/40/8 35/39/8
f 1/43/8 40/41/8 106/40/8 50/42/8
f 3/44/9 47/45/9 107/46/9 49/47/9
f 6/12/9 58/28/9 107/46/9 47/45/9
f 11/15/9 49/47/9 107/46/9 58/28/9
f 8/5/10 64/48/10 108/49/10 46/50/10
f 12/35/10 27/32/10 108/49/10 64/48/10
f 7/31/10 46/50/10 108/49/10 27/32/10
f 1/43/11 29/51/11 109/52/11 40/41/11
f 7/31/11 61/53/11 109/52/11 29/51/11
f 5/38/11 40/41/11 109/52/11 61/53/11
f 11/15/12 32/22/12 110/54/12 50/42/12
f 9/7/12 31/55/12 110/54/12 32/22/12
f 1/43/12 50/42/12 110/54/12 31/55/12
f 11/15/13 35/39/13 111/56/13 49/47/13
f 5/38/13 52/57/13 111/56/13 35/39/13
f 3/44/13 49/47/13 111/56/13 52/57/13
f 11/15/14 60/18/14 112/58/14 59/24/14
f 2/21/14 36/25/14 112/58/14 60/18/14
f 4/1/14 59/24/14 112/58/14 36/25/14
f 10/37/15 28/59/15 113/60/15 53/61/15
f 6/12/15 47/45/15 113/60/15 28/59/15
f 3/44/15 53/61/15 113/60/15 47/45/15
f 20/14/16 33/13/16 114/62/16 38/63/16
f 6/12/16 28/59/16 114/62/16 33/13/16
f 10/37/16 38/63/16 114/62/16 28/59/16
f 8/5/17 54/27/17 115/64/17 41/65/17
f 2/21/17 55/66/17 115/64/17 54/27/17
f 18/67/17 41/65/17 115/64/17 55/66/17
f 18/67/18 55/66/18 116/68/18 43/69/18
f 2/21/18 34/20/18 116/68/18 55/66/18
f 25/19/18 43/69/18 116/68/18 34/20/18
f 9/7/19 57/70/19 117/71/19 31/55/19
f 7/31/19 29/51/19 117/71/19 57/70/19
f 1/43/19 31/55/19 117/71/19 29/51/19
f 7/31/20 57/70/20 118/72/20 46/50/20
f 9/7/20 56/6/20 118/72/20 57/70/20
f 8/5/20 46/50/20 118/72/20 56/6/20
f 5/38/21 63/73/21 119/74/21 52/57/21
f 10/37/21 53/61/21 119/74/21 63/73/21
f 3/44/21 52/57/21 119/74/21 53/61/21
f 5/38/22 61/53/22 120/75/22 63/73/22
f 7/31/22 62/34/22 120/75/22 61/53/22
f 10/37/22 63/73/22 120/75/22 62/34/22
f 12/35/23 64/48/23 121/76/23 30/77/23
f 8/5/23 41/65/23 121/76/23 64/48/23
f 18/67/23 30/77/23 121/76/23 41/65/23
f 10/37/24 65/36/24 122/78/24 38/63/24
f 12/35/24 39/79/24 122/78/24 65/36/24
f 20/14/24 38/63/24 122/78/24 39/79/24
f 16/80/25 80/81/25 123/82/25 79/83/25
f 23/84/25 89/85/25 123/82/25 80/81/25
f 22/86/25 79/83/25 123/82/25 89/85/25
f 24/8/26 51/11/26 124/87/26 78/88/26
f 20/14/26 71/89/26 124/87/26 51/11/26
f 19/90/26 78/88/26 124/87/26 71/89/26
f 11/15/27 93/91/27 125/92/27 37/16/27
f 14/93/27 72/94/27 125/92/27 93/91/27
f 25/19/27 37/16/27 125/92/27 72/94/27
f 23/84/28 80/81/28 126/95/28 70/96/28
f 16/80/28 92/97/28 126/95/28 80/81/28
f 11/15/28 70/96/28 126/95/28 92/97/28
f 16/80/29 79/83/29 127/98/29 74/99/29
f 22/86/29 87/100/29 127/98/29 79/83/29
f 14/93/29 74/99/29 127/98/29 87/100/29
f 11/15/30 48/30/30 128/101/30 91/102/30
f 24/8/30 78/88/30 128/101/30 48/30/30
f 19/90/30 91/102/30 128/101/30 78/88/30
f 21/103/31 95/104/31 129/105/31 66/106/31
f 26/107/31 98/108/31 129/105/31 95/104/31
f 12/35/31 66/106/31 129/105/31 98/108/31
f 17/109/32 76/110/32 130/111/32 73/112/32
f 13/113/32 84/114/32 130/111/32 76/110/32
f 11/15/32 73/112/32 130/111/32 84/114/32
f 15/115/33 83/116/33 131/117/33 82/118/33
f 11/15/33 91/102/33 131/117/33 83/116/33
f 19/90/33 82/118/33 131/117/33 91/102/33
f 22/86/34 81/119/34 132/120/34 97/121/34
f 21/103/34 66/106/34 132/120/34 81/119/34
f 12/35/34 97/121/34 132/120/34 66/106/34
f 13/113/35 76/110/35 133/122/35 68/123/35
f 17/109/35 94/124/35 133/122/35 76/110/35
f 21/103/35 68/123/35 133/122/35 94/124/35
f 11/15/36 84/114/36 134/125/36 70/96/36
f 13/113/36 69/126/36 134/125/36 84/114/36
f 23/84/36 70/96/36 134/125/36 69/126/36
f 11/15/37 83/116/37 135/127/37 73/112/37
f 15/115/37 85/128/37 135/127/37 83/116/37
f 17/109/37 73/112/37 135/127/37 85/128/37
f 11/15/38 92/97/38 136/129/38 93/91/38
f 16/80/38 74/99/38 136/129/38 92/97/38
f 14/93/38 93/91/38 136/129/38 74/99/38
f 26/107/39 86/130/39 137/131/39 67/132/39
f 15/115/39 82/118/39 137/131/39 86/130/39
f 19/90/39 67/132/39 137/131/39 82/118/39
f 20/14/40 75/133/40 138/134/40 71/89/40
f 26/107/40 67/132/40 138/134/40 75/133/40
f 19/90/40 71/89/40 138/134/40 67/132/40
f 22/86/41 77/135/41 139/136/41 87/100/41
f 18/67/41 88/137/41 139/136/41 77/135/41
f 14/93/41 87/100/41 139/136/41 88/137/41
f 18/67/42 43/69/42 140/138/42 88/137/42
f 25/19/42 72/94/42 140/138/42 43/69/42
f 14/93/42 88/137/42 140/138/42 72/94/42
f 23/84/43 69/126/43 141/139/43 90/140/43
f 13/113/43 68/123/43 141/139/43 69/126/43
f 21/103/43 90/140/43 141/139/43 68/123/43
f 21/103/44 81/119/44 142/141/44 90/140/44
f 22/86/44 89/85/44 142/141/44 81/119/44
f 23/84/44 90/140/44 142/141/44 89/85/44
f 17/109/45 85/128/45 143/142/45 96/143/45
f 15/115/45 86/130/45 143/142/45 85/128/45
f 26/107/45 96/143/45 143/142/45 86/130/45
f 17/109/46 96/143/46 144/144/46 94/124/46
f 26/107/46 95/104/46 144/144/46 96/143/46
f 21/103/46 94/124/46 144/144/46 95/104/46
f 12/35/47 30/77/47 145/145/47 97/121/47
f 18/67/47 77/135/47 145/145/47 30/77/47
f 22/86/47 97/121/47 145/145/47 77/135/47
f 26/107/48 75/133/48 146/146/48 98/108/48
f 20/14/48 39/79/48 146/146/48 75/133/48
f 12/35/48 98/108/48 146/146/48 39/79/48
